<?xml version="1.0" standalone="no"?>
<!DOCTYPE svg PUBLIC "-//W3C//DTD SVG 1.1//EN" "http://www.w3.org/Graphics/SVG/1.1/DTD/svg11.dtd" >
<svg xmlns="http://www.w3.org/2000/svg">
<metadata>
This is a custom SVG webfont generated by Font Squirrel.
Designer    : Yanone
Foundry     : Yanone
Foundry URL : http://yanone.de/typedesign/
</metadata>
<defs>
<font id="webfont" horiz-adv-x="432" >
<font-face units-per-em="1000" ascent="800" descent="-200" />
<missing-glyph horiz-adv-x="172" />
<glyph unicode=" "  horiz-adv-x="172" />
<glyph unicode="&#x09;" horiz-adv-x="172" />
<glyph unicode="&#xa0;" horiz-adv-x="172" />
<glyph unicode="!" horiz-adv-x="189" d="M51 39q0 19 11.5 32t31.5 13q22 0 33 -12.5t11 -32.5t-12 -32.5t-32 -12.5q-43 0 -43 45zM68 191l-7 500q0 10 14 13t57 3l-9 -491q-1 -16 -12 -20.5t-43 -4.5z" />
<glyph unicode="&#x22;" horiz-adv-x="243" d="M76 585l-31 -1q-2 11 -6 72.5t-4 97.5q0 28 3 29q13 6 54 1q1 -39 -5 -117t-11 -82zM191 585l-31 -1q-2 11 -6 72.5t-4 97.5q0 28 3 29q13 6 54 1q1 -39 -5 -117t-11 -82z" />
<glyph unicode="#" d="M381 199h-67l-4 -79q-1 -9 -10.5 -11t-40.5 -2l5 92h-113l-4 -79q-1 -9 -10 -11t-40 -2l5 92h-64q0 41 6 45q2 1 7 1h53l7 124h-73q0 41 6 45q2 1 7 1h62l4 72q1 9 10 11t40 2l-5 -85h113l4 72q1 9 10 11t41 2l-5 -85h70q0 -31 -2 -38.5t-12 -7.5h-58l-7 -124h79 q0 -31 -2 -38.5t-12 -7.5zM160 369l-7 -124h113l7 124h-113z" />
<glyph unicode="$" d="M186 -129v114q-39 1 -68 9.5t-40.5 17.5t-11.5 15q0 7 5.5 22t12.5 21q37 -31 111 -31q114 0 114 108q0 32 -15 59t-52 63l-112 113q-62 60 -62 115q0 50 35 81t98 37v97q0 15 11 19.5t39 4.5v-120q34 -2 60.5 -9t36.5 -13.5t10 -9.5q0 -25 -16 -40q-34 23 -104 23 q-111 0 -111 -71q0 -38 52 -88l123 -122q65 -62 65 -139q0 -141 -132 -159v-93q0 -15 -10.5 -19.5t-38.5 -4.5z" />
<glyph unicode="%" horiz-adv-x="723" d="M67 528q0 184 142 184q69 0 101 -40.5t32 -142.5q0 -185 -138 -185q-72 0 -104.5 37t-32.5 147zM120 524q0 -79 20 -107.5t63 -28.5q87 0 87 141q0 80 -19.5 109t-61.5 29q-43 0 -66 -32.5t-23 -110.5zM383 173q0 184 142 184q69 0 101 -40.5t32 -142.5q0 -185 -138 -185 q-72 0 -104.5 37t-32.5 147zM436 168q0 -79 19.5 -107.5t62.5 -28.5q88 0 88 141q0 80 -19.5 109t-62.5 29t-65.5 -32.5t-22.5 -110.5zM157 -23q-34 6 -34 22q0 9 108.5 188.5l217.5 355t109 174.5q32 -9 32 -25q0 -3 -108 -181.5l-216 -356.5z" />
<glyph unicode="&#x26;" horiz-adv-x="513" d="M236 706q61 0 102.5 -14t41.5 -30q0 -24 -13 -39q-50 34 -126 34q-53 0 -83.5 -20t-30.5 -76q0 -59 72 -175t166 -228q17 56 17 123q0 75 -23.5 131t-60.5 85q39 6 105 6q62 0 88 -2q2 -6 2 -22q0 -13 -8 -18.5t-33 -5.5l-72 1q55 -64 55 -183q0 -93 -30 -162 q55 -60 85 -78q-2 -14 -13 -29t-22 -15q-15 0 -80 71q-55 -70 -156 -70q-183 0 -183 182q0 59 33 108t82 77q-82 137 -82 211q0 71 45.5 104.5t121.5 33.5zM337 102q-93 110 -161 214q-83 -48 -83 -147q0 -53 28 -90t95 -37q80 0 121 60z" />
<glyph unicode="'" horiz-adv-x="128" d="M76 585l-31 -1q-2 11 -6 72.5t-4 97.5q0 28 3 29q13 6 54 1q1 -39 -5 -117t-11 -82z" />
<glyph unicode="(" horiz-adv-x="294" d="M125 326q0 -169 47.5 -296.5t98.5 -185.5q-8 -39 -31 -39q-6 0 -24 20t-43.5 64.5t-48.5 102.5t-39 146.5t-16 185.5q0 92 17 175.5t40.5 137.5t49 94t43 58t22.5 18q22 0 30 -36q-145 -173 -146 -445z" />
<glyph unicode=")" horiz-adv-x="294" d="M169 326q-1 154 -45 267.5t-101 177.5q8 36 30 36q5 0 22 -17.5t42.5 -57.5t49.5 -93.5t40.5 -137.5t16.5 -177q0 -94 -16 -181t-39 -146t-48 -104.5t-43 -66.5t-24 -21q-23 0 -31 39q22 28 44 66.5t47 98.5t40 143t15 174z" />
<glyph unicode="*" horiz-adv-x="472" d="M265 676l-15 -165q-2 -17 -27 -12l-16 171q-1 13 19.5 14.5t38.5 -8.5zM277 491l156 74q15 -11 18.5 -32.5t-10.5 -25.5l-166 -48q-17 22 2 32zM61 561l140 -77q1 -13 -4 -19t-14 -2l-162 50q-1 23 13.5 38.5t26.5 9.5zM335 250l-87 162q-4 8 -0.5 13t17.5 10l112 -144 q9 -12 -6 -25t-36 -16zM75 294l119 133q13 13 28 -6l-97 -156q-12 -12 -27 -1t-23 30z" />
<glyph unicode="+" d="M378 257h-136v-137q0 -9 -9 -11t-41 -2v150h-150v24t1.5 14.5t4 9.5t7.5 2h137v136q0 10 9.5 12t40.5 2v-150h150q0 -31 -2 -40.5t-12 -9.5z" />
<glyph unicode="," horiz-adv-x="180" d="M55 43q0 18 11 29.5t28 11.5q41 0 41 -47q0 -44 -26 -94.5t-41 -50.5q-18 0 -23 18q28 48 30 93q-20 12 -20 40z" />
<glyph unicode="-" horiz-adv-x="290" d="M233 257h-190v24t1.5 14.5t4 9.5t7.5 2h191q0 -31 -2 -40.5t-12 -9.5z" />
<glyph unicode="." horiz-adv-x="180" d="M49 39q0 19 11.5 32t30.5 13q22 0 33 -12.5t11 -32.5t-12 -32.5t-32 -12.5q-42 0 -42 45z" />
<glyph unicode="/" horiz-adv-x="307" d="M297 765l-225 -770q-4 -11 -13.5 -13t-48.5 -2l226 768q4 12 13 14.5t48 2.5z" />
<glyph unicode="0" d="M36 296q0 152 44 228t141 76q95 0 135 -70t40 -221q0 -162 -42 -243t-140 -81q-96 0 -137 76t-41 235zM95 289q0 -133 28 -193.5t91 -60.5q67 0 96 68.5t29 208.5q0 124 -25.5 181t-89.5 57q-69 0 -99 -65.5t-30 -195.5z" />
<glyph unicode="1" d="M78 519q-8 11 -8 40q0 6 81.5 24t97.5 18q8 0 16 -4l-12 -545h88l55 3q0 -55 -9 -55h-350q-1 9 -1 41q0 11 158 11l14 491q-19 -1 -130 -24z" />
<glyph unicode="2" d="M65 508q-7 21 -7 42q0 9 21 20.5t63 20.5t90 9q83 0 113.5 -31.5t30.5 -99.5q0 -54 -29 -110t-66 -97.5l-89.5 -102t-82.5 -107.5h185l102 4q0 -56 -10 -56h-346q-4 8 -4 21q0 6 0.5 10.5t3 10t4.5 8.5t7.5 12l8.5 14q28 46 77 103l85.5 96.5t64.5 91t28 98.5 q0 40 -20 61t-71 21q-100 0 -159 -39z" />
<glyph unicode="3" d="M242 303q63 -6 103 -41.5t40 -108.5q0 -115 -62 -184t-163 -69q-53 0 -82 14t-29 30q0 20 7 43q40 -34 106 -34q74 0 119 56.5t45 143.5q0 28 -9.5 49t-24 33t-37 19.5t-44 10t-49.5 3.5l-1 37q140 78 140 167q0 75 -89 75q-96 0 -155 -40q-6 14 -6 41q0 11 19.5 23 t60.5 20.5t92 8.5q139 0 139 -116q0 -97 -120 -181z" />
<glyph unicode="4" d="M316 597l-3 -391l86 2l2 -21q0 -33 -18 -33h-70v-134q0 -15 -6.5 -17.5t-48.5 -2.5v154h-205q-15 15 -15 43q0 50 76 192.5t146 205.5q10 9 26 9q12 0 30 -7zM88 206h170l9 323q-52 -57 -106 -150t-73 -173z" />
<glyph unicode="5" d="M76 600h306q0 -33 -5 -41.5t-26 -8.5l-227 2l-19 -173q28 7 70 7q36 1 68 -5.5t67 -25t56 -60t21 -101.5q0 -294 -231 -294q-37 0 -65 7.5t-40 16.5t-12 16q0 25 7 46q37 -34 108 -34q92 0 133.5 64.5t41.5 170.5q0 152 -176 152q-18 0 -37.5 -2.5t-31 -5t-23.5 -5.5 t-13 -3z" />
<glyph unicode="6" d="M268 648q-75 0 -123 -75t-54 -226q50 91 156 91q69 0 110 -48t41 -146q0 -257 -190 -257q-43 0 -74 15.5t-49.5 40.5t-29 66.5t-14 84.5t-3.5 103q0 211 63 307t167 96q109 0 109 -30q0 -20 -5 -38q-41 16 -104 16zM232 386q-88 0 -141 -99q-2 -121 24 -185.5t95 -64.5 q64 0 99 53.5t35 140.5q0 155 -112 155z" />
<glyph unicode="7" d="M52 600h360q-213 -350 -272 -685q-56 0 -56 14q35 182 105 351t141 271q-40 -2 -261 -2q-17 0 -17 51z" />
<glyph unicode="8" d="M219 706q174 0 174 -161q0 -101 -120 -173q35 -22 62 -45q65 -60 65 -146q0 -87 -44.5 -138.5t-129.5 -51.5q-93 0 -139.5 52t-46.5 138q0 64 36 116.5t90 79.5q-45 26 -64 44q-55 41 -55 116q0 82 49 125.5t123 43.5zM288 301q-23 20 -69 47q-54 -20 -90.5 -64.5 t-36.5 -99.5q0 -63 34 -101.5t97 -38.5q58 0 91 37.5t33 99.5q0 69 -59 120zM224 654q-53 0 -88 -28.5t-35 -85.5q0 -60 55 -98q14 -11 68 -42q117 57 117 143q0 62 -34.5 86.5t-82.5 24.5z" />
<glyph unicode="9" d="M139 -51q187 0 203 301q-50 -91 -152 -91q-68 0 -111 50.5t-43 146.5q0 254 190 254q102 0 135 -67.5t35 -237.5q-1 -208 -63 -308t-189 -100q-84 0 -84 24q0 23 4 37q33 -9 75 -9zM205 211q83 0 139 99v2q0 60 -4 100t-15.5 76t-36 53.5t-61.5 17.5q-137 0 -137 -194 q0 -77 30.5 -115.5t84.5 -38.5z" />
<glyph unicode=":" horiz-adv-x="180" d="M49 386q0 19 11.5 32t30.5 13q44 0 44 -45q0 -19 -12 -32t-32 -13q-42 0 -42 45zM49 39q0 19 11.5 32t30.5 13q22 0 33 -12.5t11 -32.5t-12 -32.5t-32 -12.5q-42 0 -42 45z" />
<glyph unicode=";" horiz-adv-x="180" d="M50 386q0 19 11.5 32t30.5 13q44 0 44 -45q0 -19 -12 -32t-32 -13q-42 0 -42 45zM52 43q0 18 11 29.5t29 11.5q41 0 41 -47q0 -44 -26.5 -94.5t-41.5 -50.5q-19 0 -23 18q28 46 30 93q-20 12 -20 40z" />
<glyph unicode="=" d="M378 344h-336v24t1.5 14.5t4 9.5t7.5 2h337q0 -32 -2 -41t-12 -9zM378 170h-336v24t1.5 14.5t4 9.5t7.5 2h337q0 -32 -2 -41t-12 -9z" />
<glyph unicode="?" horiz-adv-x="295" d="M87 39q0 19 11.5 32t30.5 13q22 0 33 -12.5t11 -32.5t-12 -32.5t-32 -12.5q-42 0 -42 45zM143 710q61 0 100.5 -33.5t39.5 -108.5q0 -40 -14 -78t-31 -61.5l-40 -53.5t-32 -47q-19 -30 -19 -68q0 -13 2.5 -27.5t4 -19.5t-0.5 -10q-9 -11 -50 -6q-11 25 -11 61q0 46 23 87 q12 22 43.5 63.5t48.5 76t17 74.5q0 96 -96 96q-58 0 -96 -30q-7 17 -7 44q0 14 37 27.5t81 13.5z" />
<glyph unicode="@" horiz-adv-x="754" d="M648 344q0 157 -55.5 224t-189.5 67q-145 0 -220 -86.5t-75 -290.5q0 -101 13.5 -173t35.5 -114t59.5 -65.5t75 -31t91.5 -7.5q130 0 234 52q15 -25 15 -43q0 -10 -28.5 -24t-87.5 -26t-128 -12q-45 0 -77 3t-69.5 13.5t-63 29.5t-51 52t-40.5 80t-24.5 115.5t-9.5 156.5 q0 219 93 320t258 101q153 0 226 -78t73 -253q0 -94 -13 -163t-30.5 -104t-42 -55.5t-41 -25t-33.5 -4.5q-38 0 -63 25q-38 -26 -111 -26q-62 -1 -95 29.5t-31 121.5q2 89 42 124.5t108 35.5q40 0 61 -8q1 37 2 63q1 45 -19 61.5t-61 16.5q-65 0 -107 -24q-6 12 -6 31 q0 11 9 17q37 24 122 24q59 0 87 -27t26 -91l-6 -215q-4 -83 -5 -97q20 -12 42 -12q11 0 23.5 6t28.5 25.5t28.5 50t21 85.5t8.5 126zM447 88l6 179q-22 5 -49 5q-51 0 -79.5 -27t-29.5 -95q-2 -63 18.5 -84.5t61.5 -21.5q27 0 49 12t23 32z" />
<glyph unicode="A" horiz-adv-x="436" d="M372 0l-51 193h-206l-47 -182q-2 -12 -27 -12q-20 0 -34 2l189 694q2 9 19 9t24 -3l189 -688q2 -8 -3 -11t-20 -3q-19 0 -33 1zM176 429l-48 -185h179l-48 185q-39 151 -41 179q-4 -39 -42 -179z" />
<glyph unicode="B" horiz-adv-x="392" d="M55 0v683q0 17 25 17h100q31 0 58.5 -6.5t53 -21.5t40.5 -44t15 -69q0 -128 -69 -165q-12 -7 -26 -8q4 0 24 -4q12 -2 23.5 -8t29.5 -20t29 -44t11 -71q0 -57 -13 -101t-32.5 -69.5t-46.5 -41.5t-51 -21.5t-49 -5.5h-122zM110 356v-306h67q56 0 92.5 43.5t36.5 142.5 q0 77 -31.5 99t-97.5 22zM110 650v-244q70 -1 75 -1q103 0 103 143q0 55 -30.5 79t-76.5 24z" />
<glyph unicode="C" horiz-adv-x="353" d="M233 715q30 0 52.5 -9.5t31.5 -19.5t9 -17q0 -26 -10 -38q-35 31 -72 31q-25 0 -44 -6.5t-39.5 -28.5t-34 -58.5t-22 -101t-8.5 -151.5q0 -83 9.5 -138.5t28.5 -83.5t39.5 -38.5t48.5 -10.5t56.5 13.5t40.5 30.5q10 -18 10 -42q0 -16 -36 -39t-77 -23q-31 0 -52 4t-47 23 t-41.5 53t-26 98t-10.5 154q0 101 12 176t30 116.5t45.5 66.5t52 32t54.5 7z" />
<glyph unicode="D" horiz-adv-x="414" d="M81 700h100q99 0 146.5 -71t47.5 -238q0 -116 -14.5 -195t-42.5 -120.5t-61.5 -58.5t-79.5 -17h-121v683q0 17 25 17zM315 391q0 140 -32 199t-103 59h-69v-596h67q23 0 41 6.5t37 27.5t31 57t20 98.5t8 148.5z" />
<glyph unicode="E" horiz-adv-x="337" d="M111 51h197q0 -36 -1.5 -43.5t-10.5 -7.5h-239v686q0 14 13 14h239q0 -47 -5 -50q-2 -1 -5 -1h-188v-241h176q0 -34 -1.5 -42.5t-10.5 -8.5h-164v-306z" />
<glyph unicode="F" horiz-adv-x="327" d="M99 0h-42v686q0 14 13 14h239q0 -46 -5 -48q-2 -1 -5 -1h-188v-242h176q0 -35 -1.5 -43.5t-10.5 -8.5h-164v-344q1 -13 -12 -13z" />
<glyph unicode="G" horiz-adv-x="399" d="M247 714q43 0 74 -14t31 -28q-2 -24 -8 -38q-35 27 -87 27q-83 0 -123 -69.5t-40 -249.5q0 -96 9.5 -158.5t28.5 -93t40.5 -41t52.5 -10.5q33 0 57.5 13.5t24.5 23.5v275h-98v34q0 13 15 13h135v-357q-13 -19 -48 -37.5t-88 -18.5q-47 0 -79.5 14.5t-58 52.5t-37.5 109 t-12 178q0 113 14.5 188.5t44 115.5t65.5 55.5t87 15.5z" />
<glyph unicode="H" d="M322 0v355h-212v-342q0 -10 -7 -11.5t-48 -1.5v686q0 10 7 12t48 2v-293h212v279q0 10 7 12t48 2v-687q0 -10 -7 -11.5t-48 -1.5z" />
<glyph unicode="I" horiz-adv-x="165" d="M54 0q2 170 2 350l-2 322q0 21 7.5 24.5t48.5 3.5q-2 -195 -2 -350l2 -337q0 -10 -7 -11.5t-49 -1.5z" />
<glyph unicode="J" horiz-adv-x="302" d="M192 190v483q0 20 7 23.5t48 3.5v-537q0 -30 -2 -52.5t-9.5 -47.5t-20.5 -41t-36.5 -26.5t-55.5 -10.5q-48 0 -75 15.5t-27 32.5q0 24 10 38q33 -36 84 -36q26 0 42 10.5t23.5 33.5t9.5 47t2 64z" />
<glyph unicode="K" horiz-adv-x="393" d="M54 0v686q0 10 7 12t48 2v-302l202 299q15 3 41 3t14 -19l-201 -283q40 -27 76 -76.5t58 -100.5t38.5 -98t23.5 -77l7 -30q4 -17 -14 -17q-33 0 -43 1q0 45 -44 155.5t-111 174.5q-21 18 -47 29v-346q0 -10 -7 -11.5t-48 -1.5z" />
<glyph unicode="L" horiz-adv-x="329" d="M111 700v-648h198v-39q0 -13 -14 -13h-240v680q0 15 7 17.5t49 2.5z" />
<glyph unicode="M" horiz-adv-x="498" d="M55 0v686q0 14 13 14h37l109 -351l35 -120l34 117l105 340q5 14 14 14h42v-687q0 -10 -7 -11.5t-49 -1.5l2 305l8 262l-74 -246l-58 -170q-3 -9 -11 -9h-26l-56 179q-2 5 -14 45.5l-31.5 104.5l-28.5 93l9 -251l1 -300q0 -10 -7.5 -11.5t-46.5 -1.5z" />
<glyph unicode="N" horiz-adv-x="456" d="M350 0l-123 281q-28 66 -122 313q4 -148 4 -336v-245q0 -10 -6.5 -11.5t-47.5 -1.5v686q0 14 13 14h39l120 -276q19 -53 124 -316q-5 75 -5 341v237q0 10 7 12t48 2v-687q0 -13 -13 -13h-38z" />
<glyph unicode="O" horiz-adv-x="443" d="M36 355q0 192 46 276t144 84t139 -80.5t41 -278.5q0 -200 -44.5 -285.5t-143.5 -85.5t-140.5 81t-41.5 289zM97 338q0 -160 28 -228.5t94 -68.5q69 0 98.5 73t29.5 243q0 166 -27 234t-93 68q-68 0 -99 -74.5t-31 -246.5z" />
<glyph unicode="P" horiz-adv-x="370" d="M172 700q175 0 175 -190q0 -109 -48 -161.5t-131 -52.5h-59v-283q0 -10 -6.5 -11.5t-47.5 -1.5v686q0 14 13 14h104zM287 514q0 136 -110 136h-34.5t-24 -0.5t-9.5 -0.5v-300q3 0 32 -0.5t31 -0.5q115 0 115 166z" />
<glyph unicode="Q" horiz-adv-x="446" d="M38 355q0 192 45.5 276t144.5 84q98 0 139 -80.5t41 -278.5q0 -175 -33.5 -261.5t-107.5 -103.5q9 -43 21 -61.5t38 -18.5q35 0 66 17q9 -12 9 -35q0 -12 -27.5 -20t-60.5 -8q-48 0 -71.5 32.5t-36.5 87.5q-61 3 -96.5 38.5t-53 115.5t-17.5 216zM99 338 q0 -160 28 -228.5t94 -68.5q69 0 98.5 73t29.5 243q0 166 -27 234t-94 68t-98 -74.5t-31 -246.5z" />
<glyph unicode="R" horiz-adv-x="379" d="M55 0v686q0 14 13 14h104q175 0 175 -190q0 -158 -103 -201q85 -111 101 -294q1 -9 -3.5 -12t-20.5 -4q-21 0 -34 1q-21 199 -98 297q-7 -1 -21 -1h-59v-283q0 -10 -6.5 -11.5t-47.5 -1.5zM287 514q0 136 -110 136h-34.5t-24 -0.5t-9.5 -0.5v-300q3 0 32 -0.5t31 -0.5 q115 0 115 166z" />
<glyph unicode="S" horiz-adv-x="369" d="M199 715q42 0 74 -8.5t44 -17t12 -13.5q0 -20 -15 -38q-36 27 -107 27q-52 0 -83 -23.5t-31 -64.5q0 -42 55 -104l126 -141q65 -69 65 -160q0 -187 -174 -187q-42 0 -74 9.5t-45 20.5t-13 19q0 7 5.5 21t12.5 21q37 -35 113 -35q60 0 88.5 34.5t28.5 93.5q0 38 -15 71 t-53 74l-114 129q-64 70 -64 133q0 64 43.5 101.5t120.5 37.5z" />
<glyph unicode="T" horiz-adv-x="367" d="M347 648h-138v-635q0 -10 -6.5 -11.5t-48.5 -1.5v648h-147v38q0 6 3 10q4 4 7 4h3h340v-39q0 -12 -13 -13z" />
<glyph unicode="U" horiz-adv-x="458" d="M111 700v-476q0 -33 1 -51.5t7.5 -48.5t18.5 -46t37 -29t61 -13q68 0 112 22v629q0 10 7 11.5t49 1.5v-684q-21 -13 -68.5 -22.5t-99.5 -9.5q-38 0 -67 8t-48 19.5t-32 32.5t-19.5 37.5t-10 46t-4 45.5t-0.5 47v466q0 10 7 12t49 2z" />
<glyph unicode="V" horiz-adv-x="421" d="M7 681q-3 10 -1 14.5t12 4.5h44l112 -444q34 -145 41 -198q6 52 37 198l103 424q9 18 16 20h45q-168 -712 -171 -712q-24 -2 -43 -2q-21 0 -36 58z" />
<glyph unicode="W" horiz-adv-x="643" d="M6 681q-3 19 12 19h44l92 -445q16 -84 30 -194h4q6 79 27 194l77 389q3 19 16 19h39l88 -408q8 -37 13 -68.5t10 -69.5t7 -55h4q14 127 27 193l82 425q3 20 16 20h45q-138 -712 -141 -712t-17 -1.5t-26 -1.5q-18 0 -30 51l-75 330q-8 34 -30 190l-28 -189l-78 -379 q-26 -2 -46 -2q-17 0 -30 61z" />
<glyph unicode="X" horiz-adv-x="426" d="M397 700l-145 -337l162 -352q5 -11 -8 -11h-57l-68 150l-70 165q-35 -87 -71 -164l-68 -144q-4 -7 -14 -7h-48l168 363l-141 327q-3 8 6 9q8 1 57 1l51 -121q36 -84 67 -169q25 65 69 169l48 111q3 8 10 9t52 1z" />
<glyph unicode="Y" horiz-adv-x="361" d="M155 0v284l-149 407q-2 7 6 8t56 1l48 -143q21 -58 43.5 -129.5t23.5 -82.5q2 24 67 213l46 132q2 7 10 8.5t50 1.5l-146 -414v-273q0 -10 -6.5 -11.5t-48.5 -1.5z" />
<glyph unicode="Z" horiz-adv-x="393" d="M50 648v38q0 14 14 14h294q7 -5 8 -23q0 -11 -3 -23l-279 -604h225l53 4v-41q0 -13 -13 -13h-317q-6 6 -7 21q0 17 3 27l275 602h-212z" />
<glyph unicode="[" horiz-adv-x="415" d="M192 821h213q0 -34 -3.5 -42t-19.5 -8h-178v-919h200q0 -36 -4.5 -44t-19.5 -8h-231v1001q0 13 7 16.5t36 3.5z" />
<glyph unicode="\" horiz-adv-x="303" d="M64 765l228 -780q3 -11 -5.5 -13t-47.5 -2l-228 778q-3 12 5.5 14.5t47.5 2.5z" />
<glyph unicode="]" horiz-adv-x="415" d="M222 -200h-212q0 34 3.5 42t19.5 8h178v920h-200q0 36 4.5 44t19.5 8h231v-1002q0 -13 -7.5 -16.5t-36.5 -3.5z" />
<glyph unicode="_" horiz-adv-x="383" d="M353 -94h-337q0 32 2 41t12 9h336v-24t-1.5 -14.5t-4 -9.5t-7.5 -2z" />
<glyph unicode="`" horiz-adv-x="236" d="M176 611q-3 0 -68.5 49t-72.5 56q2 13 9.5 28.5t16.5 15.5q3 0 65.5 -53t70.5 -64q-11 -32 -21 -32z" />
<glyph unicode="a" horiz-adv-x="367" d="M37 471q0 12 7 19q16 9 64.5 17t101.5 8q56 0 83.5 -28t27.5 -93v-65l-5 -311q-58 -33 -136 -33q-33 0 -54 3.5t-44 17t-34.5 47t-11.5 86.5q0 96 40.5 129.5t107.5 33.5q54 0 83 -12v93q0 45 -18.5 62t-51.5 17q-101 0 -153 -25q-7 13 -7 34zM267 249q-27 10 -65 10 q-52 0 -80.5 -23.5t-28.5 -98.5q0 -37 6.5 -59.5t22 -31.5t28 -11t37.5 -2q56 0 75 21q5 120 5 195z" />
<glyph unicode="b" horiz-adv-x="401" d="M58 15v693q0 19 9.5 23t45.5 4v-261q43 40 114 40q72 0 106.5 -44t34.5 -152q0 -333 -189 -333q-88 0 -121 30zM113 426v-373q18 -18 67 -18q22 0 41.5 10t40.5 36t33.5 83t12.5 139q0 94 -22.5 128t-76.5 34q-60 0 -96 -39z" />
<glyph unicode="c" horiz-adv-x="331" d="M304 482q0 -23 -7 -40q-34 23 -72 23q-26 0 -46 -8t-40.5 -30.5t-31.5 -70.5t-11 -120q0 -67 7 -108t23.5 -61t34.5 -26t49 -6q45 0 87 30q7 -17 7 -35q0 -13 -31.5 -29t-67.5 -16q-45 0 -71 7t-50 32t-34 77t-10 138q0 59 7.5 105.5t21.5 75.5t30.5 49t38 29.5t40.5 13 t42 3.5q30 0 57 -11.5t27 -21.5z" />
<glyph unicode="d" horiz-adv-x="402" d="M290 55l-1 390q-25 20 -66 20q-54 0 -88.5 -54.5t-34.5 -169.5q0 -67 7.5 -109t23 -62.5t33 -27.5t44.5 -7q53 0 82 20zM289 492v216q0 19 10 23t46 4v-720q-54 -30 -142 -30q-39 0 -65 8.5t-50 33.5t-35.5 77t-11.5 132q0 137 46.5 207.5t119.5 70.5q53 0 82 -22z" />
<glyph unicode="e" horiz-adv-x="375" d="M217 515q126 0 126 -160q0 -76 -10 -123q-89 -18 -239 -18q0 -45 6 -77.5t15 -51t24 -29.5t30.5 -14t37.5 -3q76 0 124 34q7 -18 7 -51q0 -6 -18 -14.5t-51 -15.5t-67 -7q-39 0 -66 8.5t-51 32.5t-35.5 73t-11.5 124q0 77 11 132.5t27 86t41.5 47.5t47.5 21.5t52 4.5z M212 465q-22 0 -39.5 -7t-35.5 -26.5t-29.5 -63t-13.5 -108.5q135 0 191 14q4 32 4 70q-1 63 -17.5 92t-59.5 29z" />
<glyph unicode="f" horiz-adv-x="248" d="M91 452h-76q0 34 2 41t13 7h61v63q0 47 10.5 80t25.5 50t39 26.5t42.5 11.5t45.5 2q86 0 86 -24q0 -15 -6 -35q-33 12 -74 12q-26 0 -42 -3t-35 -13.5t-28 -35.5t-9 -65v-69h104q0 -34 -2 -41t-12 -7h-90v-439q0 -13 -14 -13h-41v452z" />
<glyph unicode="g" horiz-adv-x="403" d="M214 515q21 0 45 -6h124q6 -15 6 -26q0 -22 -23 -22q-26 0 -56 6q57 -37 57 -129q0 -83 -39.5 -133.5t-122.5 -50.5q-35 0 -57 7q-42 -34 -42 -61q0 -18 150 -37q59 -8 94 -32t35 -78q0 -63 -50 -107t-144 -44q-158 0 -158 114q0 67 81 120q-32 9 -49 20.5t-16 27.5 q0 20 19 46.5t44 45.5q-63 40 -63 153q0 90 46 138t119 48zM212 472q-46 0 -76 -36t-30 -105q0 -63 21 -97.5t82 -34.5q51 0 77 42t26 110q0 121 -100 121zM217 19q-40 4 -57 7q-30 -19 -50.5 -46t-20.5 -54q0 -33 22.5 -52.5t84.5 -19.5q63 0 98 28t35 64q0 38 -26 52.5 t-86 20.5z" />
<glyph unicode="h" horiz-adv-x="396" d="M54 0v708q0 19 9.5 23t45.5 4v-263q54 43 125 43q73 0 95 -38t22 -171v-293q0 -10 -6.5 -11.5t-49.5 -1.5v303q0 102 -14.5 131t-63.5 29q-66 0 -108 -41v-409q0 -10 -6.5 -11.5t-48.5 -1.5z" />
<glyph unicode="i" horiz-adv-x="171" d="M114 500v-487q0 -10 -7.5 -11.5t-49.5 -1.5v473q0 19 10.5 23t46.5 4zM55 676q2 46 34 46q31 0 30 -45q0 -47 -34 -47q-30 0 -30 46z" />
<glyph unicode="j" horiz-adv-x="182" d="M119 500v-521q0 -77 -24 -117.5t-92 -40.5q-37 0 -64.5 6.5t-39.5 15t-12 17.5q0 25 9 37q40 -26 98 -26q45 0 57.5 26.5t12.5 92.5v483q0 19 9.5 23t45.5 4zM60 676q2 46 34 46q31 0 30 -45q-2 -47 -34 -47q-31 0 -30 46z" />
<glyph unicode="k" horiz-adv-x="392" d="M57 0v708q0 19 9.5 23t45.5 4v-279q59 59 145 59q43 0 63.5 -26t20.5 -64q0 -58 -35 -100t-70 -60q40 -7 76 -45t46 -107q3 -21 3 -46t-3 -53q-2 -11 -10 -12q-8 -2 -52 -2q4 31 4 62q0 48 -9 79q-16 57 -52 79t-68 14q-19 -5 -59 -23v-198q0 -10 -6.5 -11.5t-48.5 -1.5z M281 416q0 23 -12.5 38t-34.5 15q-69 0 -122 -70v-145q76 26 122.5 67.5t46.5 94.5z" />
<glyph unicode="l" horiz-adv-x="170" d="M112 735v-722q0 -10 -6.5 -11.5t-48.5 -1.5v708q0 19 9.5 23t45.5 4z" />
<glyph unicode="m" horiz-adv-x="592" d="M272 0v372q-2 55 -14.5 74.5t-53.5 19.5q-46 0 -92 -23v-430q0 -10 -6.5 -11.5t-48.5 -1.5v482q72 33 148 33q69 0 94 -37q53 37 123 37q29 0 48.5 -3.5t33 -14.5t20.5 -23t10.5 -37t4.5 -47t1 -64v-313q0 -10 -6.5 -11.5t-48.5 -1.5v332q0 83 -10.5 108t-56.5 25 q-49 0 -91 -29v-423q0 -8 -3 -10q0 -1 -2 -1q-6 -2 -18 -2h-32z" />
<glyph unicode="n" horiz-adv-x="401" d="M55 0v482q76 33 165 33q46 0 72.5 -8.5t40.5 -34t17.5 -56.5t3.5 -90v-313q0 -10 -7 -11.5t-49 -1.5v332q0 80 -14.5 107t-68.5 27q-63 0 -105 -24v-429q0 -10 -6.5 -11.5t-48.5 -1.5z" />
<glyph unicode="o" horiz-adv-x="383" d="M31 249q0 266 166 266q81 0 118.5 -58.5t37.5 -206.5q0 -265 -161 -265q-42 0 -69 10t-49.5 37t-32.5 80.5t-10 136.5zM90 245q0 -123 24 -167.5t75 -44.5q105 0 105 219q0 123 -23.5 168t-74.5 45t-78.5 -50t-27.5 -170z" />
<glyph unicode="p" horiz-adv-x="400" d="M57 -178v654q61 39 144 39q81 0 123 -49.5t42 -166.5q0 -95 -17.5 -162.5t-45.5 -98t-53.5 -42.5t-52.5 -12q-55 0 -85 36v-216q-12 -4 -32 -4q-14 0 -18.5 4t-4.5 18zM112 440v-359q24 -46 71 -46q18 0 36.5 9.5t39.5 34t34 78.5t13 131q0 102 -26.5 140t-85.5 38 q-45 0 -82 -26z" />
<glyph unicode="q" horiz-adv-x="408" d="M351 484v-660q0 -16 -6 -20t-28 -4q-4 0 -11.5 0.5t-10.5 0.5v237q-35 -53 -112 -53q-143 0 -143 236q0 143 55 218.5t145 75.5q67 0 111 -31zM295 98v350q-22 18 -65 18q-62 0 -96 -64.5t-34 -187.5q0 -179 101 -179q29 -1 55 15t39 48z" />
<glyph unicode="r" horiz-adv-x="275" d="M55 0v471q65 44 134 44q72 0 72 -31q0 -21 -8 -37q-26 15 -56 15q-52 0 -86 -31v-418q0 -10 -6.5 -11.5t-49.5 -1.5z" />
<glyph unicode="s" horiz-adv-x="368" d="M201 515q42 0 73.5 -9t44 -19.5t12.5 -18.5q0 -18 -13 -34q-48 31 -109 31q-48 0 -78 -15.5t-30 -45.5q0 -32 40 -65l120 -95q68 -56 68 -120q0 -69 -43 -104.5t-121 -35.5q-55 0 -90.5 12t-35.5 27q0 21 14 38q43 -26 107 -26q108 0 108 86q0 46 -56 89l-113 92 q-60 48 -60 103q0 54 43.5 82t118.5 28z" />
<glyph unicode="t" horiz-adv-x="298" d="M101 146v305h-74q0 33 2 41t11 8h61v158q0 16 9 19t46 3v-180h121q0 -33 -2 -41t-10 -8h-109v-312q0 -36 2 -55t12.5 -34.5t31.5 -15.5q28 0 65 16q4 -16 4 -37q0 -13 -24.5 -20.5t-56.5 -7.5q-26 0 -43.5 9t-26.5 20.5t-13.5 36.5t-5 42t-0.5 53z" />
<glyph unicode="u" horiz-adv-x="416" d="M357 500v-483q-61 -32 -152 -32t-119 41t-28 148v312q0 11 7 12.5t49 1.5v-332q0 -78 17 -106t72 -28q59 0 99 24v428q0 11 6.5 12.5t48.5 1.5z" />
<glyph unicode="v" horiz-adv-x="356" d="M142 38l-116 444q-4 13 4 15.5t52 2.5l43 -174q31 -119 57 -258h1q24 139 53 259l39 159q2 10 9.5 12t47.5 2l-128 -510q-16 -2 -37 -2q-11 0 -25 50z" />
<glyph unicode="w" horiz-adv-x="553" d="M24 486q-2 10 6 12t52 2l40 -182q26 -125 47 -249h3q6 36 43 217l35 183q1 14 19 14h36l43 -199q11 -46 22.5 -99.5t17.5 -84.5l5 -31h4q8 80 42 249l34 168q2 10 9.5 12t46.5 2q-111 -513 -114 -513q-16 -2 -34 -2q-7 0 -15.5 15t-14.5 40l-16 68q-36 147 -58 286 q-28 -176 -54 -286l-27 -121q-29 -2 -43 -2t-24 49z" />
<glyph unicode="x" horiz-adv-x="437" d="M400 500l-145 -234l156 -252q7 -10 -1 -12t-59 -2l-52 80q-35 56 -84 144q-21 -39 -83 -145l-45 -68q-4 -8 -13.5 -9.5t-51.5 -1.5l162 262l-139 228q-3 7 5 9q9 1 53 1l51 -80q47 -79 68 -119l70 121l45 68q4 8 11.5 9t51.5 1z" />
<glyph unicode="y" horiz-adv-x="370" d="M163 -16l-130 499q-3 13 4 15t49 2l76 -294q17 -73 28 -149q10 75 26 150l68 276q2 13 9.5 15t49.5 2l-132 -531q-22 -88 -50 -120.5t-72 -32.5q-39 0 -60.5 8t-21.5 19q0 23 10 35q24 -13 66 -13q26 0 45.5 25.5t34.5 93.5z" />
<glyph unicode="z" horiz-adv-x="364" d="M47 500h281q6 -6 6 -19q0 -16 -8 -28l-232 -401h116l121 5q1 -7 1 -23q0 -34 -14 -34h-279q-10 10 -10 29q0 11 6 21l235 402h-121l-114 -2q0 32 2 41t10 9z" />
<glyph unicode="|" horiz-adv-x="354" d="M204 815v-1000q0 -11 -8 -13t-47 -2v998q0 12 8 14.5t47 2.5z" />
<glyph unicode="&#xa1;" horiz-adv-x="189" d="M140 469q0 -19 -11.5 -32t-30.5 -13q-44 0 -44 45q0 19 12 32t32 13q42 0 42 -45zM123 317l8 -500q0 -11 -13.5 -13.5t-57.5 -2.5l9 490q1 16 12 21t42 5z" />
<glyph unicode="&#xa2;" d="M283 638v-125q27 -2 49.5 -12t22.5 -19q0 -27 -7 -42q-35 22 -72 22q-26 0 -46 -8.5t-40.5 -31.5t-31.5 -73t-11 -124q0 -83 14.5 -125.5t36.5 -54t63 -11.5q46 0 87 31q7 -14 7 -36q0 -14 -29 -29.5t-65 -16.5v-99q0 -14 -10.5 -19t-38.5 -5v125q-62 7 -91.5 57 t-29.5 183q0 259 142 285v104q0 15 11 19.5t39 4.5z" />
<glyph unicode="&#xa5;" d="M187 0v180h-136q0 27 4.5 36.5t18.5 9.5h113v58l-21 57h-115q0 27 4.5 36.5t18.5 9.5h75l-111 304q-2 7 6 8t56 1l48 -143q21 -58 43.5 -129.5t23.5 -82.5q2 24 67 213l46 132q2 7 10 8.5t50 1.5l-111 -313h98q0 -27 -4.5 -36.5t-18.5 -9.5h-92l-18 -53v-62h134 q0 -27 -4.5 -36.5t-18.5 -9.5h-111v-167q0 -10 -7 -11.5t-48 -1.5z" />
<glyph unicode="&#xa8;" horiz-adv-x="328" d="M45 656q0 17 10.5 29t28.5 12q19 0 29.5 -11.5t10.5 -29.5t-11 -29.5t-29 -11.5q-39 0 -39 41zM186 656q0 17 10.5 29t27.5 12q20 0 30.5 -11.5t10.5 -29.5t-11 -29.5t-30 -11.5q-38 0 -38 41z" />
<glyph unicode="&#xa9;" horiz-adv-x="464" d="M291 657q0 -14 -7 -26q-18 10 -33 10q-28 0 -45 -22.5t-17 -91.5q0 -54 12 -69.5t40 -15.5q19 0 43 13q7 -14 7 -24q0 -7 -17.5 -14.5t-36.5 -7.5q-46 0 -65.5 22t-19.5 97q0 88 26.5 117t67.5 29q14 0 29.5 -6t15.5 -11zM38 540q0 220 200 220q97 0 143 -49.5t46 -169.5 q0 -107 -51 -164t-144 -57q-99 0 -146.5 48t-47.5 172zM82 537q0 -96 36 -135t110 -39q71 0 113 45t42 135q0 95 -36 135.5t-108 40.5q-157 0 -157 -182z" />
<glyph unicode="&#xab;" horiz-adv-x="417" d="M28 255q0 11 38 73l74 116l37 56q9 0 17 -7t12 -14l4 -7q0 -12 -32 -66t-64 -102l-33 -49q133 -198 133 -221q-13 -34 -32 -34q-154 227 -154 255zM191 250q0 11 36.5 68.5t73.5 109.5l37 51q9 0 17.5 -6.5t12.5 -13.5l3 -7q0 -12 -31 -62q-32 -52 -64 -96l-32 -44 q130 -173 130 -195q-12 -33 -31 -33q-152 202 -152 228z" />
<glyph unicode="&#xad;" horiz-adv-x="290" d="M233 257h-190v24t1.5 14.5t4 9.5t7.5 2h191q0 -31 -2 -40.5t-12 -9.5z" />
<glyph unicode="&#xae;" horiz-adv-x="464" d="M38 540q0 220 200 220q97 0 143 -49.5t46 -169.5q0 -107 -51 -164t-144 -57q-99 0 -146.5 48t-47.5 172zM82 537q0 -96 36 -135t110 -39q71 0 113 45t42 135q0 95 -36 135.5t-108 40.5q-157 0 -157 -182zM172 412v259q0 5 6 5h49q83 0 83 -72q0 -55 -41 -74 q39 -39 47 -110q0 -8 -11 -9q-1 0 -10 0.5t-12 0.5q-11 81 -47 110h-33v-102q0 -6 -4.5 -7t-20.5 -1h-6zM277 604q0 44 -50 44h-24v-97h23q51 0 51 53z" />
<glyph unicode="&#xb0;" horiz-adv-x="333" d="M54 632q0 53 29.5 83.5t83.5 30.5q52 0 81.5 -30.5t29.5 -83.5t-30 -83t-81 -30q-53 0 -83 30t-30 83zM101 632q0 -66 66 -66t66 66q0 32 -17 49.5t-49 17.5q-66 0 -66 -67z" />
<glyph unicode="&#xb4;" horiz-adv-x="263" d="M71 564q-4 0 -9.5 8t-8.5 16l-3 8q25 26 57.5 55t54.5 45.5t24 16.5q9 0 16.5 -15.5t9.5 -28.5q-8 -9 -56 -45t-85 -60z" />
<glyph unicode="&#xb7;" horiz-adv-x="208" d="M59 269q0 19 11.5 32t30.5 13q44 0 44 -45q0 -19 -12 -32t-32 -13q-42 0 -42 45z" />
<glyph unicode="&#xb8;" horiz-adv-x="141" d="M59 3h35l-13 -63q2 2 18 2q20 0 34.5 -14.5t14.5 -43.5q0 -38 -21 -57.5t-51 -19.5q-29 0 -53 10q4 26 10 33q5 2 9.5 0t15 -5.5t19.5 -3.5q34 0 34 36q0 35 -33 35l-38 -6z" />
<glyph unicode="&#xbb;" horiz-adv-x="415" d="M387 255q0 -12 -39 -76l-76 -121l-39 -58q-4 1 -9 3t-14 10.5t-9 19.5t33.5 66.5l66.5 105.5l33 50q-129 190 -129 217q0 9 9 16q8 8 16 10l8 2q149 -220 149 -245zM226 250q0 -12 -38 -69.5t-76 -108.5l-39 -51q-3 1 -8 3t-13.5 10.5t-8.5 19.5q0 24 130 196 q1 0 -30.5 44.5l-64 95t-32.5 62.5q0 20 31 28q149 -204 149 -230z" />
<glyph unicode="&#xbf;" horiz-adv-x="302" d="M210 477q0 -19 -11.5 -32t-30.5 -13q-44 0 -44 45q0 19 12 32t32 13q42 0 42 -45zM154 -195q-61 0 -100.5 33.5t-39.5 108.5q0 40 14 78.5t31 62l40 53.5t32 46q18 31 18 68q0 12 -2 27t-3.5 20t0.5 10q9 13 50 6q11 -25 11 -61q0 -46 -23 -87q-13 -23 -44 -63.5 t-48.5 -75t-17.5 -74.5q0 -97 97 -97q57 0 96 30q7 -19 7 -43q0 -15 -37.5 -28.5t-80.5 -13.5z" />
<glyph unicode="&#xc0;" horiz-adv-x="429" d="M368 0l-51 193h-206l-47 -182q-2 -12 -27 -12q-20 0 -34 2l189 694q2 9 19 9t24 -3l189 -688q2 -8 -3 -11t-20 -3q-19 0 -33 1zM172 429l-48 -185h179l-48 185q-39 151 -41 179q-4 -39 -42 -179zM231 811q-3 0 -68.5 49t-72.5 56q2 13 9.5 28.5t16.5 15.5q3 0 65.5 -53 t70.5 -64q-11 -32 -21 -32z" />
<glyph unicode="&#xc1;" horiz-adv-x="429" d="M368 0l-51 193h-206l-47 -182q-2 -12 -27 -12q-20 0 -34 2l189 694q2 9 19 9t24 -3l189 -688q2 -8 -3 -11t-20 -3q-19 0 -33 1zM172 429l-48 -185h179l-48 185q-39 151 -41 179q-4 -39 -42 -179zM191 764q-4 0 -9.5 8t-8.5 16l-3 8q25 26 57.5 55t54.5 45.5t24 16.5 q9 0 16.5 -15.5t9.5 -28.5q-8 -9 -56 -45t-85 -60z" />
<glyph unicode="&#xc2;" horiz-adv-x="429" d="M368 0l-51 193h-206l-47 -182q-2 -12 -27 -12q-20 0 -34 2l189 694q2 9 19 9t24 -3l189 -688q2 -8 -3 -11t-20 -3q-19 0 -33 1zM172 429l-48 -185h179l-48 185q-39 151 -41 179q-4 -39 -42 -179zM94 807l111 114q8 2 13 2q12 0 20 -9q97 -97 97 -107q0 -6 -13 -12.5 t-28 -6.5q-70 72 -77 85q-73 -84 -85 -84q-25 0 -38 18z" />
<glyph unicode="&#xc3;" horiz-adv-x="429" d="M368 0l-51 193h-206l-47 -182q-2 -12 -27 -12q-20 0 -34 2l189 694q2 9 19 9t24 -3l189 -688q2 -8 -3 -11t-20 -3q-19 0 -33 1zM172 429l-48 -185h179l-48 185q-39 151 -41 179q-4 -39 -42 -179zM73 830q40 68 102 68q23 0 46.5 -25.5t44.5 -25.5q22 0 36.5 11.5t22 22.5 t11.5 11q6 0 12 -8t8 -16l2 -8q-6 -13 -16.5 -26t-33.5 -26.5t-50 -13.5q-19 0 -33.5 8.5t-21.5 18t-17 18t-22 8.5q-17 0 -30 -11.5t-21 -22.5t-12 -11q-15 0 -28 28z" />
<glyph unicode="&#xc4;" horiz-adv-x="429" d="M368 0l-51 193h-206l-47 -182q-2 -12 -27 -12q-20 0 -34 2l189 694q2 9 19 9t24 -3l189 -688q2 -8 -3 -11t-20 -3q-19 0 -33 1zM172 429l-48 -185h179l-48 185q-39 151 -41 179q-4 -39 -42 -179zM105 856q0 17 10.5 29t28.5 12q19 0 29.5 -11.5t10.5 -29.5t-11 -29.5 t-29 -11.5q-39 0 -39 41zM246 856q0 17 10.5 29t27.5 12q20 0 30.5 -11.5t10.5 -29.5t-11 -29.5t-30 -11.5q-38 0 -38 41z" />
<glyph unicode="&#xc5;" horiz-adv-x="429" d="M368 0l-51 193h-206l-47 -182q-2 -12 -27 -12q-20 0 -34 2l189 694q2 9 19 9t24 -3l189 -688q2 -8 -3 -11t-20 -3q-19 0 -33 1zM172 429l-48 -185h179l-48 185q-39 151 -41 179q-4 -39 -42 -179zM117 876q0 40 28.5 69t69.5 29q40 0 68.5 -29t28.5 -69q0 -41 -28.5 -70 t-68.5 -29q-41 0 -69.5 29t-28.5 70zM151 876q0 -28 18.5 -46.5t45.5 -18.5t45.5 18.5t18.5 46.5q0 27 -19 45.5t-45 18.5q-27 0 -45.5 -18.5t-18.5 -45.5z" />
<glyph unicode="&#xc6;" horiz-adv-x="642" d="M417 51h197q0 -36 -1.5 -43.5t-10.5 -7.5h-240v193h-196l-87 -182q-5 -12 -27 -12q-20 0 -34 2l328 688q5 11 21 11h248q0 -35 -1.5 -43t-9.5 -8h-187v-241h175q0 -34 -1.5 -42.5t-9.5 -8.5h-164v-306zM277 425l-87 -181h172v387q-16 -43 -85 -206z" />
<glyph unicode="&#xc7;" horiz-adv-x="353" d="M233 715q30 0 52.5 -9.5t31.5 -19.5t9 -17q0 -26 -10 -38q-35 31 -72 31q-25 0 -44 -6.5t-39.5 -28.5t-34 -58.5t-22 -101t-8.5 -151.5q0 -83 9.5 -138.5t28.5 -83.5t39.5 -38.5t48.5 -10.5t56.5 13.5t40.5 30.5q10 -18 10 -42q0 -15 -33 -37t-72 -25l-9 -45q2 2 18 2 q20 0 34.5 -14.5t14.5 -43.5q0 -38 -21 -57.5t-51 -19.5q-29 0 -53 10q4 26 10 33q5 2 9.5 0t15 -5.5t19.5 -3.5q34 0 34 36q0 35 -33 35l-38 -6l15 80q-33 3 -57 15.5t-46.5 46t-34.5 101t-12 168.5t12 176t30 116.5t45.5 66.5t52 32t54.5 7z" />
<glyph unicode="&#xc8;" horiz-adv-x="339" d="M111 51h197q0 -36 -1.5 -43.5t-10.5 -7.5h-239v686q0 14 13 14h239q0 -47 -5 -50q-2 -1 -5 -1h-188v-241h176q0 -34 -1.5 -42.5t-10.5 -8.5h-164v-306zM230 811q-3 0 -68.5 49t-72.5 56q2 13 9.5 28.5t16.5 15.5q3 0 65.5 -53t70.5 -64q-11 -32 -21 -32z" />
<glyph unicode="&#xc9;" horiz-adv-x="339" d="M111 51h197q0 -36 -1.5 -43.5t-10.5 -7.5h-239v686q0 14 13 14h239q0 -47 -5 -50q-2 -1 -5 -1h-188v-241h176q0 -34 -1.5 -42.5t-10.5 -8.5h-164v-306zM177 764q-4 0 -9.5 8t-8.5 16l-3 8q25 26 57.5 55t54.5 45.5t24 16.5q9 0 16.5 -15.5t9.5 -28.5q-8 -9 -56 -45 t-85 -60z" />
<glyph unicode="&#xca;" horiz-adv-x="339" d="M111 51h197q0 -36 -1.5 -43.5t-10.5 -7.5h-239v686q0 14 13 14h239q0 -47 -5 -50q-2 -1 -5 -1h-188v-241h176q0 -34 -1.5 -42.5t-10.5 -8.5h-164v-306zM50 807l111 114q8 2 13 2q12 0 20 -9q97 -97 97 -107q0 -6 -13 -12.5t-28 -6.5q-70 72 -77 85q-73 -84 -85 -84 q-25 0 -38 18z" />
<glyph unicode="&#xcb;" horiz-adv-x="339" d="M111 51h197q0 -36 -1.5 -43.5t-10.5 -7.5h-239v686q0 14 13 14h239q0 -47 -5 -50q-2 -1 -5 -1h-188v-241h176q0 -34 -1.5 -42.5t-10.5 -8.5h-164v-306zM78 856q0 17 10.5 29t28.5 12q19 0 29.5 -11.5t10.5 -29.5t-11 -29.5t-29 -11.5q-39 0 -39 41zM219 856q0 17 10.5 29 t27.5 12q20 0 30.5 -11.5t10.5 -29.5t-11 -29.5t-30 -11.5q-38 0 -38 41z" />
<glyph unicode="&#xcc;" horiz-adv-x="165" d="M54 0q2 170 2 350l-2 322q0 21 7.5 24.5t48.5 3.5q-2 -195 -2 -350l2 -337q0 -10 -7 -11.5t-49 -1.5zM109 811q-3 0 -68.5 49t-72.5 56q2 13 9.5 28.5t16.5 15.5q3 0 65.5 -53t70.5 -64q-11 -32 -21 -32z" />
<glyph unicode="&#xcd;" horiz-adv-x="165" d="M54 0q2 170 2 350l-2 322q0 21 7.5 24.5t48.5 3.5q-2 -195 -2 -350l2 -337q0 -10 -7 -11.5t-49 -1.5zM56 764q-4 0 -9.5 8t-8.5 16l-3 8q25 26 57.5 55t54.5 45.5t24 16.5q9 0 16.5 -15.5t9.5 -28.5q-8 -9 -56 -45t-85 -60z" />
<glyph unicode="&#xce;" horiz-adv-x="165" d="M54 0q2 170 2 350l-2 322q0 21 7.5 24.5t48.5 3.5q-2 -195 -2 -350l2 -337q0 -10 -7 -11.5t-49 -1.5zM-38 807l111 114q8 2 13 2q12 0 20 -9q97 -97 97 -107q0 -6 -13 -12.5t-28 -6.5q-70 72 -77 85q-73 -84 -85 -84q-25 0 -38 18z" />
<glyph unicode="&#xcf;" horiz-adv-x="165" d="M54 0q2 170 2 350l-2 322q0 21 7.5 24.5t48.5 3.5q-2 -195 -2 -350l2 -337q0 -10 -7 -11.5t-49 -1.5zM-27 856q0 17 10.5 29t28.5 12q19 0 29.5 -11.5t10.5 -29.5t-11 -29.5t-29 -11.5q-39 0 -39 41zM114 856q0 17 10.5 29t27.5 12q20 0 30.5 -11.5t10.5 -29.5t-11 -29.5 t-30 -11.5q-38 0 -38 41z" />
<glyph unicode="&#xd1;" horiz-adv-x="456" d="M350 0l-123 281q-28 66 -122 313q4 -148 4 -336v-245q0 -10 -6.5 -11.5t-47.5 -1.5v686q0 14 13 14h39l120 -276q19 -53 124 -316q-5 75 -5 341v237q0 10 7 12t48 2v-687q0 -13 -13 -13h-38zM86 830q40 68 102 68q23 0 46.5 -25.5t44.5 -25.5q22 0 36.5 11.5t22 22.5 t11.5 11q6 0 11.5 -8t7.5 -16l3 -8q-6 -13 -16.5 -26t-33.5 -26.5t-50 -13.5q-19 0 -33.5 8.5t-21.5 18t-17 18t-22 8.5q-17 0 -30 -11.5t-21 -22.5t-12 -11q-15 0 -28 28z" />
<glyph unicode="&#xd2;" horiz-adv-x="443" d="M36 355q0 192 46 276t144 84t139 -80.5t41 -278.5q0 -200 -44.5 -285.5t-143.5 -85.5t-140.5 81t-41.5 289zM97 338q0 -160 28 -228.5t94 -68.5q69 0 98.5 73t29.5 243q0 166 -27 234t-93 68q-68 0 -99 -74.5t-31 -246.5zM254 811q-3 0 -68.5 49t-72.5 56q2 13 9.5 28.5 t16.5 15.5q3 0 65.5 -53t70.5 -64q-11 -32 -21 -32z" />
<glyph unicode="&#xd3;" horiz-adv-x="443" d="M36 355q0 192 46 276t144 84t139 -80.5t41 -278.5q0 -200 -44.5 -285.5t-143.5 -85.5t-140.5 81t-41.5 289zM97 338q0 -160 28 -228.5t94 -68.5q69 0 98.5 73t29.5 243q0 166 -27 234t-93 68q-68 0 -99 -74.5t-31 -246.5zM191 764q-4 0 -9.5 8t-8.5 16l-3 8 q25 26 57.5 55t54.5 45.5t24 16.5q9 0 16.5 -15.5t9.5 -28.5q-8 -9 -56 -45t-85 -60z" />
<glyph unicode="&#xd4;" horiz-adv-x="443" d="M36 355q0 192 46 276t144 84t139 -80.5t41 -278.5q0 -200 -44.5 -285.5t-143.5 -85.5t-140.5 81t-41.5 289zM97 338q0 -160 28 -228.5t94 -68.5q69 0 98.5 73t29.5 243q0 166 -27 234t-93 68q-68 0 -99 -74.5t-31 -246.5zM101 807l111 114q8 2 13 2q12 0 20 -9 q97 -97 97 -107q0 -6 -13 -12.5t-28 -6.5q-70 72 -77 85q-73 -84 -85 -84q-25 0 -38 18z" />
<glyph unicode="&#xd5;" horiz-adv-x="443" d="M36 355q0 192 46 276t144 84t139 -80.5t41 -278.5q0 -200 -44.5 -285.5t-143.5 -85.5t-140.5 81t-41.5 289zM97 338q0 -160 28 -228.5t94 -68.5q69 0 98.5 73t29.5 243q0 166 -27 234t-93 68q-68 0 -99 -74.5t-31 -246.5zM79 830q40 68 102 68q23 0 46.5 -25.5 t44.5 -25.5q22 0 36.5 11.5t22 22.5t11.5 11q6 0 12 -8t8 -16l2 -8q-6 -13 -16.5 -26t-33.5 -26.5t-50 -13.5q-19 0 -33.5 8.5t-21.5 18t-17 18t-22 8.5q-17 0 -30 -11.5t-21 -22.5t-12 -11q-15 0 -28 28z" />
<glyph unicode="&#xd6;" horiz-adv-x="443" d="M36 355q0 192 46 276t144 84t139 -80.5t41 -278.5q0 -200 -44.5 -285.5t-143.5 -85.5t-140.5 81t-41.5 289zM97 338q0 -160 28 -228.5t94 -68.5q69 0 98.5 73t29.5 243q0 166 -27 234t-93 68q-68 0 -99 -74.5t-31 -246.5zM111 856q0 17 10.5 29t28.5 12q19 0 29.5 -11.5 t10.5 -29.5t-11 -29.5t-29 -11.5q-39 0 -39 41zM252 856q0 17 10.5 29t27.5 12q20 0 30.5 -11.5t10.5 -29.5t-11 -29.5t-30 -11.5q-38 0 -38 41z" />
<glyph unicode="&#xd7;" d="M298 150l-83 93l-82 -93q-4 -4 -7.5 -4.5t-9.5 4t-11 9.5l-17 17l93 105l-94 107q31 30 39 29q3 0 6 -3l83 -94l84 94q8 5 14.5 1t25.5 -22l5 -5l-95 -107l94 -105q-22 -23 -28 -27t-17 1z" />
<glyph unicode="&#xd8;" horiz-adv-x="464" d="M89 -16q-9 -1 -21.5 3.5t-14.5 14.5q0 5 30 76q-36 84 -36 277q0 192 46 276t144 84q77 0 117 -47l20 51q34 -2 37 -18q0 -7 -28 -83q34 -81 34 -262q0 -200 -44.5 -285.5t-143.5 -85.5q-79 0 -120 48zM358 357q0 144 -21 216l-187 -495q28 -37 77 -37q69 0 100 69 t31 247zM108 338q0 -143 20 -212l186 495q-26 38 -76 38q-68 0 -99 -74.5t-31 -246.5z" />
<glyph unicode="&#xd9;" horiz-adv-x="458" d="M111 700v-476q0 -33 1 -51.5t7.5 -48.5t18.5 -46t37 -29t61 -13q68 0 112 22v629q0 10 7 11.5t49 1.5v-684q-21 -13 -68.5 -22.5t-99.5 -9.5q-38 0 -67 8t-48 19.5t-32 32.5t-19.5 37.5t-10 46t-4 45.5t-0.5 47v466q0 10 7 12t49 2zM259 811q-3 0 -68.5 49t-72.5 56 q2 13 9.5 28.5t16.5 15.5q3 0 65.5 -53t70.5 -64q-11 -32 -21 -32z" />
<glyph unicode="&#xda;" horiz-adv-x="458" d="M111 700v-476q0 -33 1 -51.5t7.5 -48.5t18.5 -46t37 -29t61 -13q68 0 112 22v629q0 10 7 11.5t49 1.5v-684q-21 -13 -68.5 -22.5t-99.5 -9.5q-38 0 -67 8t-48 19.5t-32 32.5t-19.5 37.5t-10 46t-4 45.5t-0.5 47v466q0 10 7 12t49 2zM199 764q-4 0 -9.5 8t-8.5 16l-3 8 q25 26 57.5 55t54.5 45.5t24 16.5q9 0 16.5 -15.5t9.5 -28.5q-8 -9 -56 -45t-85 -60z" />
<glyph unicode="&#xdb;" horiz-adv-x="458" d="M111 700v-476q0 -33 1 -51.5t7.5 -48.5t18.5 -46t37 -29t61 -13q68 0 112 22v629q0 10 7 11.5t49 1.5v-684q-21 -13 -68.5 -22.5t-99.5 -9.5q-38 0 -67 8t-48 19.5t-32 32.5t-19.5 37.5t-10 46t-4 45.5t-0.5 47v466q0 10 7 12t49 2zM109 807l111 114q8 2 13 2q12 0 20 -9 q97 -97 97 -107q0 -6 -13 -12.5t-28 -6.5q-70 72 -77 85q-73 -84 -85 -84q-25 0 -38 18z" />
<glyph unicode="&#xdc;" horiz-adv-x="458" d="M111 700v-476q0 -33 1 -51.5t7.5 -48.5t18.5 -46t37 -29t61 -13q68 0 112 22v629q0 10 7 11.5t49 1.5v-684q-21 -13 -68.5 -22.5t-99.5 -9.5q-38 0 -67 8t-48 19.5t-32 32.5t-19.5 37.5t-10 46t-4 45.5t-0.5 47v466q0 10 7 12t49 2zM119 856q0 17 10.5 29t28.5 12 q19 0 29.5 -11.5t10.5 -29.5t-11 -29.5t-29 -11.5q-39 0 -39 41zM260 856q0 17 10.5 29t27.5 12q20 0 30.5 -11.5t10.5 -29.5t-11 -29.5t-30 -11.5q-38 0 -38 41z" />
<glyph unicode="&#xdd;" horiz-adv-x="361" d="M155 0v284l-149 407q-2 7 6 8t56 1l48 -143q61 -168 67 -211q6 41 67 212l46 132q2 7 10 8.5t50 1.5l-146 -414v-273q0 -10 -6.5 -11.5t-48.5 -1.5zM160 764q-4 0 -9.5 8t-8.5 16l-3 8q25 26 57.5 55t54.5 45.5t24 16.5q9 0 16.5 -15.5t9.5 -28.5q-8 -9 -56 -45t-85 -60z " />
<glyph unicode="&#xdf;" horiz-adv-x="470" d="M58 48l-1 501q0 80 40.5 114t116.5 34q98 0 146 -41t48 -94q0 -31 -20 -55t-44 -36.5t-44 -32t-20 -42.5q0 -19 18 -39.5t44 -40.5t52 -43.5t44 -57.5t18 -74q0 -74 -40 -115t-110 -41q-36 0 -64 8t-41 17.5t-13 17.5q0 19 15 38q35 -31 93 -31q45 0 73 26.5t28 77.5 q0 31 -18 59.5t-44 50.5l-52 43.5t-44 47.5t-18 53q0 31 20 55t44.5 37.5t44.5 33.5t20 43q0 35 -33.5 60.5t-98.5 25.5q-57 0 -81.5 -29.5t-24.5 -101.5l1 -495q0 -20 -6.5 -28t-25.5 -8q-21 0 -32 9q9 20 9 53z" />
<glyph unicode="&#xe0;" horiz-adv-x="367" d="M37 471q0 12 7 19q16 9 64.5 17t101.5 8q56 0 83.5 -28t27.5 -93v-65l-5 -311q-58 -33 -136 -33q-33 0 -54 3.5t-44 17t-34.5 47t-11.5 86.5q0 96 40.5 129.5t107.5 33.5q54 0 83 -12v93q0 45 -18.5 62t-51.5 17q-101 0 -153 -25q-7 13 -7 34zM267 249q-27 10 -65 10 q-52 0 -80.5 -23.5t-28.5 -98.5q0 -37 6.5 -59.5t22 -31.5t28 -11t37.5 -2q56 0 75 21q5 120 5 195zM217 611q-3 0 -68.5 49t-72.5 56q2 13 9.5 28.5t16.5 15.5q3 0 65.5 -53t70.5 -64q-11 -32 -21 -32z" />
<glyph unicode="&#xe1;" horiz-adv-x="367" d="M37 471q0 12 7 19q16 9 64.5 17t101.5 8q56 0 83.5 -28t27.5 -93v-65l-5 -311q-58 -33 -136 -33q-33 0 -54 3.5t-44 17t-34.5 47t-11.5 86.5q0 96 40.5 129.5t107.5 33.5q54 0 83 -12v93q0 45 -18.5 62t-51.5 17q-101 0 -153 -25q-7 13 -7 34zM267 249q-27 10 -65 10 q-52 0 -80.5 -23.5t-28.5 -98.5q0 -37 6.5 -59.5t22 -31.5t28 -11t37.5 -2q56 0 75 21q5 120 5 195zM150 600q-4 0 -9.5 8t-8.5 16l-3 8q25 26 57.5 55t54.5 45.5t24 16.5q9 0 16.5 -15.5t9.5 -28.5q-8 -9 -56 -45t-85 -60z" />
<glyph unicode="&#xe2;" horiz-adv-x="367" d="M37 471q0 12 7 19q16 9 64.5 17t101.5 8q56 0 83.5 -28t27.5 -93v-65l-5 -311q-58 -33 -136 -33q-33 0 -54 3.5t-44 17t-34.5 47t-11.5 86.5q0 96 40.5 129.5t107.5 33.5q54 0 83 -12v93q0 45 -18.5 62t-51.5 17q-101 0 -153 -25q-7 13 -7 34zM267 249q-27 10 -65 10 q-52 0 -80.5 -23.5t-28.5 -98.5q0 -37 6.5 -59.5t22 -31.5t28 -11t37.5 -2q56 0 75 21q5 120 5 195zM60 637l111 114q8 2 13 2q12 0 20 -9q97 -97 97 -107q0 -6 -13 -12.5t-28 -6.5q-70 72 -77 85q-73 -84 -85 -84q-25 0 -38 18z" />
<glyph unicode="&#xe3;" horiz-adv-x="369" d="M39 471q0 12 7 19q16 9 64.5 17t101.5 8q56 0 83.5 -28t27.5 -93v-65l-5 -311q-58 -33 -136 -33q-33 0 -54 3.5t-44 17t-34.5 47t-11.5 86.5q0 96 40.5 129.5t107.5 33.5q54 0 83 -12v93q0 45 -18.5 62t-51.5 17q-101 0 -153 -25q-7 13 -7 34zM269 249q-27 10 -65 10 q-52 0 -80.5 -23.5t-28.5 -98.5q0 -37 6.5 -59.5t22 -31.5t28 -11t37.5 -2q56 0 75 21q5 120 5 195zM39 646q40 68 102 68q23 0 46.5 -25.5t44.5 -25.5q22 0 36.5 11.5t22 22.5t11.5 11q6 0 12 -8t8 -16l2 -8q-6 -13 -16.5 -26t-33.5 -26.5t-50 -13.5q-19 0 -33.5 8.5 t-21.5 18t-17 18t-22 8.5q-17 0 -30 -11.5t-21 -22.5t-12 -11q-15 0 -28 28z" />
<glyph unicode="&#xe4;" horiz-adv-x="367" d="M37 471q0 12 7 19q16 9 64.5 17t101.5 8q56 0 83.5 -28t27.5 -93v-65l-5 -311q-58 -33 -136 -33q-33 0 -54 3.5t-44 17t-34.5 47t-11.5 86.5q0 96 40.5 129.5t107.5 33.5q54 0 83 -12v93q0 45 -18.5 62t-51.5 17q-101 0 -153 -25q-7 13 -7 34zM267 249q-27 10 -65 10 q-52 0 -80.5 -23.5t-28.5 -98.5q0 -37 6.5 -59.5t22 -31.5t28 -11t37.5 -2q56 0 75 21q5 120 5 195zM71 656q0 17 10.5 29t28.5 12q19 0 29.5 -11.5t10.5 -29.5t-11 -29.5t-29 -11.5q-39 0 -39 41zM212 656q0 17 10.5 29t27.5 12q20 0 30.5 -11.5t10.5 -29.5t-11 -29.5 t-30 -11.5q-38 0 -38 41z" />
<glyph unicode="&#xe5;" horiz-adv-x="367" d="M37 471q0 12 7 19q16 9 64.5 17t101.5 8q56 0 83.5 -28t27.5 -93v-65l-5 -311q-58 -33 -136 -33q-33 0 -54 3.5t-44 17t-34.5 47t-11.5 86.5q0 96 40.5 129.5t107.5 33.5q54 0 83 -12v93q0 45 -18.5 62t-51.5 17q-101 0 -153 -25q-7 13 -7 34zM267 249q-27 10 -65 10 q-52 0 -80.5 -23.5t-28.5 -98.5q0 -37 6.5 -59.5t22 -31.5t28 -11t37.5 -2q56 0 75 21q5 120 5 195zM86 702q0 40 28.5 69t69.5 29q40 0 68.5 -29t28.5 -69q0 -41 -28.5 -70t-68.5 -29q-41 0 -69.5 29t-28.5 70zM120 702q0 -28 18.5 -46.5t45.5 -18.5q26 0 45 18.5t19 46.5 q0 27 -19 45.5t-45 18.5q-27 0 -45.5 -18.5t-18.5 -45.5z" />
<glyph unicode="&#xe6;" horiz-adv-x="620" d="M40 469q0 15 9 19q42 27 152 27q49 0 75.5 -18.5t33.5 -60.5q23 47 57 63t82 16q126 0 126 -160q0 -76 -10 -123q-45 -7 -93 -7q-76 0 -146 15v-17q0 -59 7.5 -97t24 -56.5t34.5 -24.5t47 -6q75 0 124 34q7 -18 7 -51q0 -6 -18 -14.5t-51 -15.5t-67 -7q-87 0 -120 49v-19 q-47 -30 -134 -30q-33 0 -54 4t-44 18.5t-34.5 48t-11.5 86.5q0 96 40.5 131.5t107.5 35.5q54 0 83 -12v89q0 45 -22 62t-63 17q-84 0 -135 -29q-7 13 -7 33zM267 53v203q-27 10 -65 10q-51 0 -80 -25.5t-29 -99.5q0 -70 23.5 -90t70.5 -20q58 0 80 22zM444 465 q-46 0 -77 -36t-39 -143q77 -16 137 -16q31 0 52 4q4 32 4 70q-1 63 -17.5 92t-59.5 29z" />
<glyph unicode="&#xe7;" horiz-adv-x="346" d="M314 482q0 -23 -7 -40q-34 23 -72 23q-26 0 -46 -8t-40.5 -30.5t-31.5 -70.5t-11 -120q0 -67 7 -108t23.5 -61t34.5 -26t49 -6q45 0 87 30q7 -17 7 -35q0 -13 -30.5 -28.5t-67.5 -16.5l-9 -45q2 2 18 2q20 0 34.5 -14.5t14.5 -43.5q0 -38 -21 -57.5t-51 -19.5 q-29 0 -53 10q4 26 10 33q5 2 9.5 0t15 -5.5t19.5 -3.5q34 0 34 36q0 35 -33 35l-38 -6l15 80q-46 3 -72.5 22t-42.5 74.5t-16 156.5q0 59 7.5 105.5t21.5 75.5t30.5 49t38 29.5t40.5 13t42 3.5q30 0 57 -11.5t27 -21.5z" />
<glyph unicode="&#xe8;" horiz-adv-x="372" d="M217 515q126 0 126 -160q0 -76 -10 -123q-89 -18 -239 -18q0 -45 6 -77.5t15 -51t24 -29.5t30.5 -14t37.5 -3q76 0 124 34q7 -18 7 -51q0 -6 -18 -14.5t-51 -15.5t-67 -7q-39 0 -66 8.5t-51 32.5t-35.5 73t-11.5 124q0 77 11 132.5t27 86t41.5 47.5t47.5 21.5t52 4.5z M212 465q-22 0 -39.5 -7t-35.5 -26.5t-29.5 -63t-13.5 -108.5q135 0 191 14q4 32 4 70q-1 63 -17.5 92t-59.5 29zM246 611q-3 0 -68.5 49t-72.5 56q2 13 9.5 28.5t16.5 15.5q3 0 65.5 -53t70.5 -64q-11 -32 -21 -32z" />
<glyph unicode="&#xe9;" horiz-adv-x="372" d="M217 515q126 0 126 -160q0 -76 -10 -123q-89 -18 -239 -18q0 -45 6 -77.5t15 -51t24 -29.5t30.5 -14t37.5 -3q76 0 124 34q7 -18 7 -51q0 -6 -18 -14.5t-51 -15.5t-67 -7q-39 0 -66 8.5t-51 32.5t-35.5 73t-11.5 124q0 77 11 132.5t27 86t41.5 47.5t47.5 21.5t52 4.5z M212 465q-22 0 -39.5 -7t-35.5 -26.5t-29.5 -63t-13.5 -108.5q135 0 191 14q4 32 4 70q-1 63 -17.5 92t-59.5 29zM154 577q-4 0 -9.5 8t-8.5 16l-3 8q25 26 57.5 55t54.5 45.5t24 16.5q9 0 16.5 -15.5t9.5 -28.5q-8 -9 -56 -45t-85 -60z" />
<glyph unicode="&#xea;" horiz-adv-x="372" d="M217 515q126 0 126 -160q0 -76 -10 -123q-89 -18 -239 -18q0 -45 6 -77.5t15 -51t24 -29.5t30.5 -14t37.5 -3q76 0 124 34q7 -18 7 -51q0 -6 -18 -14.5t-51 -15.5t-67 -7q-39 0 -66 8.5t-51 32.5t-35.5 73t-11.5 124q0 77 11 132.5t27 86t41.5 47.5t47.5 21.5t52 4.5z M212 465q-22 0 -39.5 -7t-35.5 -26.5t-29.5 -63t-13.5 -108.5q135 0 191 14q4 32 4 70q-1 63 -17.5 92t-59.5 29zM76 607l111 114q8 2 13 2q12 0 20 -9q97 -97 97 -107q0 -6 -13 -12.5t-28 -6.5q-70 72 -77 85q-73 -84 -85 -84q-25 0 -38 18z" />
<glyph unicode="&#xeb;" horiz-adv-x="372" d="M217 515q126 0 126 -160q0 -76 -10 -123q-89 -18 -239 -18q0 -45 6 -77.5t15 -51t24 -29.5t30.5 -14t37.5 -3q76 0 124 34q7 -18 7 -51q0 -6 -18 -14.5t-51 -15.5t-67 -7q-39 0 -66 8.5t-51 32.5t-35.5 73t-11.5 124q0 77 11 132.5t27 86t41.5 47.5t47.5 21.5t52 4.5z M212 465q-22 0 -39.5 -7t-35.5 -26.5t-29.5 -63t-13.5 -108.5q135 0 191 14q4 32 4 70q-1 63 -17.5 92t-59.5 29zM89 656q0 17 10.5 29t28.5 12q19 0 29.5 -11.5t10.5 -29.5t-11 -29.5t-29 -11.5q-39 0 -39 41zM230 656q0 17 10.5 29t27.5 12q20 0 30.5 -11.5t10.5 -29.5 t-11 -29.5t-30 -11.5q-38 0 -38 41z" />
<glyph unicode="&#xec;" horiz-adv-x="171" d="M114 500v-487q0 -10 -7.5 -11.5t-49.5 -1.5v473q0 19 10.5 23t46.5 4zM114 577q-3 0 -68.5 49t-72.5 56q2 13 9.5 28.5t16.5 15.5q3 0 65.5 -53t70.5 -64q-11 -32 -21 -32z" />
<glyph unicode="&#xed;" horiz-adv-x="171" d="M114 500v-487q0 -10 -7.5 -11.5t-49.5 -1.5v473q0 19 10.5 23t46.5 4zM48 564q-4 0 -9.5 8t-8.5 16l-3 8q25 26 57.5 55t54.5 45.5t24 16.5q9 0 16.5 -15.5t9.5 -28.5q-8 -9 -56 -45t-85 -60z" />
<glyph unicode="&#xee;" horiz-adv-x="171" d="M114 500v-487q0 -10 -7.5 -11.5t-49.5 -1.5v473q0 19 10.5 23t46.5 4zM-33 607l111 114q8 2 13 2q12 0 20 -9q97 -97 97 -107q0 -6 -13 -12.5t-28 -6.5q-70 72 -77 85q-73 -84 -85 -84q-25 0 -38 18z" />
<glyph unicode="&#xef;" horiz-adv-x="171" d="M114 500v-487q0 -10 -7.5 -11.5t-49.5 -1.5v473q0 19 10.5 23t46.5 4zM-23 659q0 17 10.5 29t28.5 12q19 0 29.5 -11.5t10.5 -29.5t-11 -29.5t-29 -11.5q-39 0 -39 41zM118 659q0 17 10.5 29t27.5 12q20 0 30.5 -11.5t10.5 -29.5t-11 -29.5t-30 -11.5q-38 0 -38 41z" />
<glyph unicode="&#xf1;" horiz-adv-x="401" d="M55 0v482q76 33 165 33q46 0 72.5 -8.5t40.5 -34t17.5 -56.5t3.5 -90v-313q0 -10 -7 -11.5t-49 -1.5v332q0 80 -14.5 107t-68.5 27q-63 0 -105 -24v-429q0 -10 -6.5 -11.5t-48.5 -1.5zM58 643q40 68 102 68q23 0 46.5 -25.5t44.5 -25.5q17 0 30.5 7t19 15.5t11 15.5 t9.5 7q6 0 11.5 -8t7.5 -16l3 -8q-6 -13 -16.5 -26t-33.5 -26.5t-50 -13.5q-24 0 -40 13.5t-28 26.5t-26 13q-17 0 -30 -11t-21 -22.5t-12 -11.5q-15 0 -28 28z" />
<glyph unicode="&#xf2;" horiz-adv-x="407" d="M43 249q0 266 166 266q81 0 118.5 -58.5t37.5 -206.5q0 -265 -161 -265q-42 0 -69 10t-49.5 37t-32.5 80.5t-10 136.5zM102 245q0 -123 24 -167.5t75 -44.5q105 0 105 219q0 123 -23.5 168t-74.5 45t-78.5 -50t-27.5 -170zM240 611q-3 0 -68.5 49t-72.5 56q2 13 9.5 28.5 t16.5 15.5q3 0 65.5 -53t70.5 -64q-11 -32 -21 -32z" />
<glyph unicode="&#xf3;" horiz-adv-x="407" d="M43 249q0 266 166 266q81 0 118.5 -58.5t37.5 -206.5q0 -265 -161 -265q-42 0 -69 10t-49.5 37t-32.5 80.5t-10 136.5zM102 245q0 -123 24 -167.5t75 -44.5q105 0 105 219q0 123 -23.5 168t-74.5 45t-78.5 -50t-27.5 -170zM167 564q-4 0 -9.5 8t-8.5 16l-3 8 q25 26 57.5 55t54.5 45.5t24 16.5q9 0 16.5 -15.5t9.5 -28.5q-8 -9 -56 -45t-85 -60z" />
<glyph unicode="&#xf4;" horiz-adv-x="407" d="M43 249q0 266 166 266q81 0 118.5 -58.5t37.5 -206.5q0 -265 -161 -265q-42 0 -69 10t-49.5 37t-32.5 80.5t-10 136.5zM102 245q0 -123 24 -167.5t75 -44.5q105 0 105 219q0 123 -23.5 168t-74.5 45t-78.5 -50t-27.5 -170zM83 607l111 114q8 2 13 2q12 0 20 -9 q97 -97 97 -107q0 -6 -13 -12.5t-28 -6.5q-70 72 -77 85q-73 -84 -85 -84q-25 0 -38 18z" />
<glyph unicode="&#xf5;" horiz-adv-x="407" d="M43 249q0 266 166 266q81 0 118.5 -58.5t37.5 -206.5q0 -265 -161 -265q-42 0 -69 10t-49.5 37t-32.5 80.5t-10 136.5zM102 245q0 -123 24 -167.5t75 -44.5q105 0 105 219q0 123 -23.5 168t-74.5 45t-78.5 -50t-27.5 -170zM61 630q40 68 102 68q23 0 46.5 -25.5 t44.5 -25.5q22 0 36.5 11.5t22 22.5t11.5 11q6 0 12 -8t8 -16l2 -8q-6 -13 -16.5 -26t-33.5 -26.5t-50 -13.5q-19 0 -33.5 8.5t-21.5 18t-17 18t-22 8.5q-17 0 -30 -11.5t-21 -22.5t-12 -11q-15 0 -28 28z" />
<glyph unicode="&#xf6;" horiz-adv-x="407" d="M43 249q0 266 166 266q81 0 118.5 -58.5t37.5 -206.5q0 -265 -161 -265q-42 0 -69 10t-49.5 37t-32.5 80.5t-10 136.5zM102 245q0 -123 24 -167.5t75 -44.5q105 0 105 219q0 123 -23.5 168t-74.5 45t-78.5 -50t-27.5 -170zM94 656q0 17 10.5 29t28.5 12q19 0 29.5 -11.5 t10.5 -29.5t-11 -29.5t-29 -11.5q-39 0 -39 41zM235 656q0 17 10.5 29t27.5 12q20 0 30.5 -11.5t10.5 -29.5t-11 -29.5t-30 -11.5q-38 0 -38 41z" />
<glyph unicode="&#xf7;" d="M378 257h-336v24t1.5 14.5t4 9.5t7.5 2h337q0 -31 -2 -40.5t-12 -9.5zM175 140q0 18 10.5 30t28.5 12q40 0 40 -42q0 -18 -11 -29.5t-29 -11.5q-39 0 -39 41zM175 418q0 17 10.5 29t28.5 12q40 0 40 -41q0 -18 -11 -30t-29 -12q-39 0 -39 42z" />
<glyph unicode="&#xf8;" horiz-adv-x="424" d="M60 -22q-9 1 -20.5 7.5t-11.5 16.5q0 4 46 80q-18 58 -18 167q0 266 165 266q76 0 112 -49q28 47 35 56q33 -8 33 -24q0 -5 -44 -80q20 -62 20 -168q0 -133 -41.5 -199.5t-119.5 -66.5q-87 0 -121 52q-19 -34 -35 -58zM318 252q0 73 -10 123l-173 -292q22 -51 78 -51 q105 0 105 220zM114 245q0 -72 7 -113l172 290q-22 43 -73 43t-78.5 -50.5t-27.5 -169.5z" />
<glyph unicode="&#xf9;" horiz-adv-x="416" d="M357 500v-483q-61 -32 -152 -32t-119 41t-28 148v312q0 11 7 12.5t49 1.5v-332q0 -78 17 -106t72 -28q59 0 99 24v428q0 11 6.5 12.5t48.5 1.5zM234 611q-3 0 -68.5 49t-72.5 56q2 13 9.5 28.5t16.5 15.5q3 0 65.5 -53t70.5 -64q-11 -32 -21 -32z" />
<glyph unicode="&#xfa;" horiz-adv-x="416" d="M357 500v-483q-61 -32 -152 -32t-119 41t-28 148v312q0 11 7 12.5t49 1.5v-332q0 -78 17 -106t72 -28q59 0 99 24v428q0 11 6.5 12.5t48.5 1.5zM158 593q-4 0 -9.5 8t-8.5 16l-3 8q25 26 57.5 55t54.5 45.5t24 16.5q9 0 16.5 -15.5t9.5 -28.5q-8 -9 -56 -45t-85 -60z" />
<glyph unicode="&#xfb;" horiz-adv-x="416" d="M357 500v-483q-61 -32 -152 -32t-119 41t-28 148v312q0 11 7 12.5t49 1.5v-332q0 -78 17 -106t72 -28q59 0 99 24v428q0 11 6.5 12.5t48.5 1.5zM91 607l111 114q8 2 13 2q12 0 20 -9q97 -97 97 -107q0 -6 -13 -12.5t-28 -6.5q-70 72 -77 85q-73 -84 -85 -84q-25 0 -38 18 z" />
<glyph unicode="&#xfc;" horiz-adv-x="416" d="M357 500v-483q-61 -32 -152 -32t-119 41t-28 148v312q0 11 7 12.5t49 1.5v-332q0 -78 17 -106t72 -28q59 0 99 24v428q0 11 6.5 12.5t48.5 1.5zM101 656q0 17 10.5 29t28.5 12q19 0 29.5 -11.5t10.5 -29.5t-11 -29.5t-29 -11.5q-39 0 -39 41zM242 656q0 17 10.5 29 t27.5 12q20 0 30.5 -11.5t10.5 -29.5t-11 -29.5t-30 -11.5q-38 0 -38 41z" />
<glyph unicode="&#xfd;" horiz-adv-x="370" d="M163 -16l-130 499q-3 13 4 15t49 2l76 -294q17 -73 28 -149q10 75 26 150l68 276q2 13 9.5 15t49.5 2l-132 -531q-22 -88 -50 -120.5t-72 -32.5q-39 0 -60.5 8t-21.5 19q0 23 10 35q24 -13 66 -13q26 0 45.5 25.5t34.5 93.5zM169 564q-4 0 -9.5 8t-8.5 16l-3 8 q25 26 57.5 55t54.5 45.5t24 16.5q9 0 16.5 -15.5t9.5 -28.5q-8 -9 -56 -45t-85 -60z" />
<glyph unicode="&#xff;" horiz-adv-x="370" d="M163 -16l-130 499q-3 13 4 15t49 2l76 -294q7 -30 13 -64l10.5 -58.5t4.5 -25.5q11 80 26 149l68 276q2 13 9.5 15t49.5 2l-132 -531q-22 -88 -50 -120.5t-72 -32.5q-39 0 -60.5 8t-21.5 19q0 23 10 35q24 -13 66 -13q26 0 45.5 25.5t34.5 93.5zM85 656q0 17 10.5 29 t28.5 12q19 0 29.5 -11.5t10.5 -29.5t-11 -29.5t-29 -11.5q-39 0 -39 41zM226 656q0 17 10.5 29t27.5 12q20 0 30.5 -11.5t10.5 -29.5t-11 -29.5t-30 -11.5q-38 0 -38 41z" />
<glyph unicode="&#x152;" horiz-adv-x="627" d="M402 51h197q0 -36 -1.5 -43.5t-11.5 -7.5h-232v63q-42 -76 -136 -76q-99 0 -140.5 80.5t-41.5 286.5q0 191 46 274.5t144 83.5q88 0 128 -66v40q0 14 13 14h233q0 -35 -1.5 -43t-9.5 -8h-187v-241h175q0 -34 -1.5 -42.5t-10.5 -8.5h-163v-306zM97 338q0 -160 28 -228.5 t94 -68.5q68 0 95 71.5t27 244.5q0 168 -24.5 235t-89.5 67q-68 0 -99 -74.5t-31 -246.5z" />
<glyph unicode="&#x153;" horiz-adv-x="643" d="M37 249q0 266 166 266q98 0 132 -87q24 52 61 69.5t86 17.5q126 0 126 -160q0 -76 -10 -123q-89 -18 -239 -18q0 -45 6 -77.5t15 -51t24 -29.5t30.5 -14t37.5 -3q76 0 124 34q7 -18 7 -51q0 -6 -18 -14.5t-51 -15.5t-67 -7q-52 0 -86.5 17t-54.5 64q-42 -82 -128 -82 q-42 0 -69 10t-49 37.5t-32.5 81t-10.5 136.5zM96 245q0 -123 24 -168t75 -45q105 0 105 220q0 123 -23.5 168t-74.5 45t-78.5 -50t-27.5 -170zM477 465q-22 0 -39.5 -7t-35.5 -26.5t-29.5 -63t-13.5 -108.5q135 0 191 14q4 32 4 70q-1 63 -17.5 92t-59.5 29z" />
<glyph unicode="&#x178;" horiz-adv-x="361" d="M155 0v284l-149 407q-2 7 6 8t56 1l48 -143q21 -58 43.5 -129.5t23.5 -82.5q2 24 67 213l46 132q2 7 10 8.5t50 1.5l-146 -414v-273q0 -10 -6.5 -11.5t-48.5 -1.5zM71 856q0 17 10.5 29t28.5 12q19 0 29.5 -11.5t10.5 -29.5t-11 -29.5t-29 -11.5q-39 0 -39 41zM212 856 q0 17 10.5 29t27.5 12q20 0 30.5 -11.5t10.5 -29.5t-11 -29.5t-30 -11.5q-38 0 -38 41z" />
<glyph unicode="&#x2c6;" horiz-adv-x="418" d="M95 607l111 114q8 2 13 2q12 0 20 -9q97 -97 97 -107q0 -6 -13 -12.5t-28 -6.5q-70 72 -77 85q-73 -84 -85 -84q-25 0 -38 18z" />
<glyph unicode="&#x2dc;" horiz-adv-x="464" d="M83 630q40 68 102 68q23 0 46.5 -25.5t44.5 -25.5q22 0 36.5 11.5t22 22.5t11.5 11q6 0 12 -8t8 -16l2 -8q-6 -13 -16.5 -26t-33.5 -26.5t-50 -13.5q-19 0 -33.5 8.5t-21.5 18t-17 18t-22 8.5q-17 0 -30 -11.5t-21 -22.5t-12 -11q-15 0 -28 28z" />
<glyph unicode="&#x2000;" horiz-adv-x="487" />
<glyph unicode="&#x2001;" horiz-adv-x="974" />
<glyph unicode="&#x2002;" horiz-adv-x="487" />
<glyph unicode="&#x2003;" horiz-adv-x="974" />
<glyph unicode="&#x2004;" horiz-adv-x="324" />
<glyph unicode="&#x2005;" horiz-adv-x="243" />
<glyph unicode="&#x2006;" horiz-adv-x="162" />
<glyph unicode="&#x2007;" horiz-adv-x="162" />
<glyph unicode="&#x2008;" horiz-adv-x="121" />
<glyph unicode="&#x2009;" horiz-adv-x="194" />
<glyph unicode="&#x200a;" horiz-adv-x="54" />
<glyph unicode="&#x2010;" horiz-adv-x="290" d="M233 257h-190v24t1.5 14.5t4 9.5t7.5 2h191q0 -31 -2 -40.5t-12 -9.5z" />
<glyph unicode="&#x2011;" horiz-adv-x="290" d="M233 257h-190v24t1.5 14.5t4 9.5t7.5 2h191q0 -31 -2 -40.5t-12 -9.5z" />
<glyph unicode="&#x2013;" horiz-adv-x="436" d="M379 257h-336v24t1.5 14.5t4 9.5t7.5 2h337q0 -31 -2 -40.5t-12 -9.5z" />
<glyph unicode="&#x2014;" horiz-adv-x="700" d="M680 257h-674v24t1.5 14.5t4 9.5t7.5 2h675q0 -31 -2 -40.5t-12 -9.5z" />
<glyph unicode="&#x2018;" horiz-adv-x="159" d="M118 620q0 -18 -11 -29.5t-28 -11.5q-42 0 -42 48q0 45 24 104.5t37 59.5q20 0 23 -18q-21 -42 -23 -113q20 -12 20 -40z" />
<glyph unicode="&#x2019;" horiz-adv-x="159" d="M41 745q0 18 11 29.5t29 11.5q41 0 41 -48q0 -45 -24 -104.5t-37 -59.5q-19 0 -23 18q21 43 23 113q-20 12 -20 40z" />
<glyph unicode="&#x201a;" horiz-adv-x="157" d="M41 59q0 18 11 29.5t29 11.5q41 0 41 -48q0 -44 -24 -104t-37 -60q-19 0 -23 18q21 44 23 113q-20 12 -20 40z" />
<glyph unicode="&#x201c;" horiz-adv-x="298" d="M118 620q0 -18 -11 -29.5t-28 -11.5q-42 0 -42 48q0 45 24 104.5t37 59.5q20 0 23 -18q-21 -42 -23 -113q20 -12 20 -40zM256 620q0 -18 -10.5 -29.5t-28.5 -11.5q-41 0 -41 48q0 45 23.5 104.5t37.5 59.5q19 0 23 -18q-21 -42 -23 -113q19 -12 19 -40z" />
<glyph unicode="&#x201d;" horiz-adv-x="298" d="M180 745q0 17 11 29t28 12q41 0 41 -48q0 -45 -23.5 -104.5t-36.5 -59.5q-20 0 -24 18q22 42 24 113q-20 12 -20 40zM41 745q0 18 11 29.5t29 11.5q41 0 41 -48q0 -45 -24 -104.5t-37 -59.5q-19 0 -23 18q21 43 23 113q-20 12 -20 40z" />
<glyph unicode="&#x201e;" horiz-adv-x="296" d="M180 59q0 18 11 29.5t28 11.5q41 0 41 -48q0 -44 -23.5 -104t-36.5 -60q-20 0 -24 18q22 43 24 113q-20 12 -20 40zM41 59q0 18 11 29.5t29 11.5q41 0 41 -48q0 -44 -24 -104t-37 -60q-19 0 -23 18q21 44 23 113q-20 12 -20 40z" />
<glyph unicode="&#x2022;" horiz-adv-x="214" d="M51 282q0 27 16.5 46t43.5 19q30 0 46.5 -18t16.5 -47q0 -28 -17 -46.5t-46 -18.5q-60 0 -60 65z" />
<glyph unicode="&#x2026;" horiz-adv-x="488" d="M44 39q0 19 11.5 32t30.5 13q22 0 33 -12.5t11 -32.5t-12 -32.5t-32 -12.5q-42 0 -42 45zM201 39q0 19 11.5 32t30.5 13q22 0 33 -12.5t11 -32.5t-12 -32.5t-32 -12.5q-42 0 -42 45zM358 39q0 19 11.5 32t30.5 13q22 0 33 -12.5t11 -32.5t-12 -32.5t-32 -12.5 q-42 0 -42 45z" />
<glyph unicode="&#x202f;" horiz-adv-x="194" />
<glyph unicode="&#x2039;" horiz-adv-x="256" d="M28 250q0 26 149 250q9 0 17 -7t12 -14l4 -7q0 -12 -32 -68l-64 -104l-33 -50q133 -193 133 -216q-13 -34 -32 -34q-154 222 -154 250z" />
<glyph unicode="&#x203a;" horiz-adv-x="256" d="M228 250q0 -12 -38 -74q-38 -64 -76 -120l-39 -56q-4 1 -9 3t-14 10.5t-9 19.5t33 65q32 54 66 103l34 49q-130 195 -130 222q0 20 34 28q148 -224 148 -250z" />
<glyph unicode="&#x205f;" horiz-adv-x="243" />
<glyph unicode="&#x20ac;" d="M303 606q30 0 53 -8t32.5 -16.5t9.5 -14.5q0 -26 -11 -37q-8 7 -29.5 15.5t-43.5 8.5t-40 -5t-38 -20t-35 -48t-23 -82h163q0 -27 -4.5 -36.5t-18.5 -9.5h-146q-3 -37 -3 -83v-14h135q0 -27 -4.5 -36.5t-18.5 -9.5h-111q4 -55 15 -91t29 -52.5t35.5 -22t42.5 -5.5 q61 0 97 36q9 -18 9 -37q0 -14 -35.5 -33.5t-76.5 -19.5q-30 0 -51 4t-44 17.5t-37.5 37t-26 65.5t-14.5 101h-91q0 27 4.5 36.5t18.5 9.5h66v14q0 46 3 83h-92q0 27 4.5 36.5t18.5 9.5h74q9 65 28.5 109t46.5 64t52 27t57 7z" />
<glyph unicode="&#x2122;" horiz-adv-x="530" d="M270 383v307q0 10 10 10h21l50 -139l24 -61q17 50 20 60l48 130q3 10 10 10h24v-307q0 -7 -4.5 -8.5t-29.5 -1.5l1 114q0 17 3 116l-11.5 -32t-10.5 -30t-5 -14l-33 -86q-2 -5 -5 -5h-21l-35 91l-27 74q4 -100 4 -115l1 -103q0 -7 -4.5 -8.5t-29.5 -1.5zM237 668h-76 v-276q0 -7 -4.5 -8t-29.5 -1v285h-93v22q0 9 10 10h202v-22q0 -9 -9 -10z" />
</font>
</defs>
</svg>
